<mxfile host="app.diagrams.net" modified="2024-04-03T09:19:07.389Z" agent="Mozilla/5.0 (Windows NT 10.0; Win64; x64) AppleWebKit/537.36 (KHTML, like Gecko) Chrome/123.0.0.0 Safari/537.36" etag="bv38qHfgydbueSYqIOjr" version="24.2.1" type="github">
  <diagram name="Page-1" id="eyzPhzSZJ4ltNP7PgkB9">
    <mxGraphModel dx="1034" dy="446" grid="1" gridSize="10" guides="1" tooltips="1" connect="1" arrows="1" fold="1" page="1" pageScale="1" pageWidth="850" pageHeight="1100" math="0" shadow="0">
      <root>
        <mxCell id="0" />
        <mxCell id="1" parent="0" />
        <mxCell id="uEbPVU5brvg3jvSuJWwO-3" value="" style="edgeStyle=orthogonalEdgeStyle;rounded=0;orthogonalLoop=1;jettySize=auto;html=1;" parent="1" source="uEbPVU5brvg3jvSuJWwO-1" target="uEbPVU5brvg3jvSuJWwO-2" edge="1">
          <mxGeometry relative="1" as="geometry" />
        </mxCell>
        <mxCell id="uEbPVU5brvg3jvSuJWwO-1" value="Tokenisasi" style="rounded=0;whiteSpace=wrap;html=1;" parent="1" vertex="1">
          <mxGeometry x="360" y="190" width="120" height="60" as="geometry" />
        </mxCell>
        <mxCell id="uEbPVU5brvg3jvSuJWwO-2" value="Normalisasi" style="rounded=0;whiteSpace=wrap;html=1;" parent="1" vertex="1">
          <mxGeometry x="360" y="290" width="120" height="60" as="geometry" />
        </mxCell>
        <mxCell id="hByxMPvKR0c3_gH7oQFB-1" value="" style="edgeStyle=orthogonalEdgeStyle;rounded=0;orthogonalLoop=1;jettySize=auto;html=1;" edge="1" parent="1" source="uEbPVU5brvg3jvSuJWwO-4" target="uEbPVU5brvg3jvSuJWwO-1">
          <mxGeometry relative="1" as="geometry" />
        </mxCell>
        <mxCell id="uEbPVU5brvg3jvSuJWwO-4" value="Pembersihan" style="rounded=0;whiteSpace=wrap;html=1;" parent="1" vertex="1">
          <mxGeometry x="360" y="100" width="120" height="60" as="geometry" />
        </mxCell>
      </root>
    </mxGraphModel>
  </diagram>
</mxfile>
